<svg xmlns="http://www.w3.org/2000/svg" width="1024" height="1024" viewBox="0 0 1024 1024">
  <defs>
    <style>
      .cls-1 {
        fill: #fff;
        fill-rule: evenodd;
      }
    </style>
  </defs>
  <path id="Фигура_1" data-name="Фигура 1" class="cls-1" d="M671.418,142.834S510.483,58.594,439.93,37.243,166.3-32.391,15.535,51.457C-2.514,61.495,33.1,96.3,45.994,112.375s266.241,268.132,270.07,294.436,5.554,55.038-79.194,207.121-63.488,253.64,64.98,221.335C419.042,805.8,592.979,677.128,651.112,725.615c65.766,54.852,249.764,249.764,249.764,249.764s68.022,86.781,85.285,16.244,61.9-260.488-12.184-489.374c-24.89-76.9-85.285-162.447-85.285-162.447s77.4-123.687,10.153-199S671.418,142.834,671.418,142.834Z"/>
</svg>
